<?xml version="1.0" encoding="utf-8"?>
<!-- Generator: Adobe Illustrator 24.3.0, SVG Export Plug-In . SVG Version: 6.00 Build 0)  -->
<svg version="1.1" id="Layer_1" xmlns="http://www.w3.org/2000/svg" xmlns:xlink="http://www.w3.org/1999/xlink" x="0px" y="0px"
	 viewBox="0 0 300 100" style="enable-background:new 0 0 300 100;" xml:space="preserve">
<style type="text/css">
	.st0{fill:#F8F18B;}
	.st1{font-family:'SweetSensationsPersonalUse';}
	.st2{font-size:93.5657px;}
</style>
<line class="st0" x1="302.8" y1="56.3" x2="103.4" y2="56.3"/>
<path class="st0" d="M38.8,17l-13,69.3c-1.4,7.5,4.8,13.8,10.9,11.1l89.7-39.1c6.8-3,7.2-14.1,0.7-17.7L61.8,3.9
	C52.3-1.4,41,5,38.8,17z"/>
<path class="st0" d="M99.1,16.8L86.1,86c-1.4,7.5,4.8,13.8,10.9,11.1L186.7,58c6.8-3,7.2-14.1,0.7-17.7L122.1,3.6
	C112.6-1.7,101.4,4.7,99.1,16.8z"/>
<text transform="matrix(1 0 0 1 45.7137 65.2531)" class="st1 st2">filmster</text>
</svg>
