<?xml version="1.0" encoding="utf-8"?>
<!-- Generator: Adobe Illustrator 24.3.0, SVG Export Plug-In . SVG Version: 6.00 Build 0)  -->
<svg version="1.1" id="Layer_1" xmlns="http://www.w3.org/2000/svg" xmlns:xlink="http://www.w3.org/1999/xlink" x="0px" y="0px"
	 viewBox="0 0 300 100" style="enable-background:new 0 0 300 100;" xml:space="preserve">
<style type="text/css">
	.st0{fill:#BE1E2D;}
	.st1{font-family:'TTNormsPro-Bold';}
	.st2{font-size:77.1177px;}
</style>
<text transform="matrix(0.7384 0 0 1 4.7851 68.7373)" class="st0 st1 st2">FILMSTER</text>
<text transform="matrix(0.7384 0 0 1 9.9101 68.7369)" class="st1 st2">FILMSTER</text>
<path d="M22.59,94.68h-9.94c-1.52,0-2.74-1.23-2.74-2.74V82c0-1.52,1.23-2.74,2.74-2.74h9.94c1.52,0,2.74,1.23,2.74,2.74v9.94
	C25.33,93.46,24.11,94.68,22.59,94.68z"/>
<path d="M46.66,94.68h-9.94c-1.52,0-2.74-1.23-2.74-2.74V82c0-1.52,1.23-2.74,2.74-2.74h9.94c1.52,0,2.74,1.23,2.74,2.74v9.94
	C49.4,93.46,48.17,94.68,46.66,94.68z"/>
<path d="M70.73,94.68h-9.94c-1.52,0-2.74-1.23-2.74-2.74V82c0-1.52,1.23-2.74,2.74-2.74h9.94c1.52,0,2.74,1.23,2.74,2.74v9.94
	C73.47,93.46,72.24,94.68,70.73,94.68z"/>
<path d="M94.79,94.68h-9.94c-1.52,0-2.74-1.23-2.74-2.74V82c0-1.52,1.23-2.74,2.74-2.74h9.94c1.52,0,2.74,1.23,2.74,2.74v9.94
	C97.54,93.46,96.31,94.68,94.79,94.68z"/>
<path d="M118.86,94.68h-9.94c-1.52,0-2.74-1.23-2.74-2.74V82c0-1.52,1.23-2.74,2.74-2.74h9.94c1.52,0,2.74,1.23,2.74,2.74v9.94
	C121.6,93.46,120.37,94.68,118.86,94.68z"/>
<path d="M142.93,94.68h-9.94c-1.52,0-2.74-1.23-2.74-2.74V82c0-1.52,1.23-2.74,2.74-2.74h9.94c1.52,0,2.74,1.23,2.74,2.74v9.94
	C145.67,93.46,144.44,94.68,142.93,94.68z"/>
<path class="st0" d="M166.99,94.68h-9.94c-1.52,0-2.74-1.23-2.74-2.74V82c0-1.52,1.23-2.74,2.74-2.74h9.94
	c1.52,0,2.74,1.23,2.74,2.74v9.94C169.74,93.46,168.51,94.68,166.99,94.68z"/>
<path class="st0" d="M191.06,94.68h-9.94c-1.52,0-2.74-1.23-2.74-2.74V82c0-1.52,1.23-2.74,2.74-2.74h9.94
	c1.52,0,2.74,1.23,2.74,2.74v9.94C193.8,93.46,192.58,94.68,191.06,94.68z"/>
<path class="st0" d="M215.13,94.68h-9.94c-1.52,0-2.74-1.23-2.74-2.74V82c0-1.52,1.23-2.74,2.74-2.74h9.94
	c1.52,0,2.74,1.23,2.74,2.74v9.94C217.87,93.46,216.64,94.68,215.13,94.68z"/>
<path class="st0" d="M239.2,94.68h-9.94c-1.52,0-2.74-1.23-2.74-2.74V82c0-1.52,1.23-2.74,2.74-2.74h9.94
	c1.52,0,2.74,1.23,2.74,2.74v9.94C241.94,93.46,240.71,94.68,239.2,94.68z"/>
<path class="st0" d="M263.26,94.68h-9.94c-1.52,0-2.74-1.23-2.74-2.74V82c0-1.52,1.23-2.74,2.74-2.74h9.94
	c1.52,0,2.74,1.23,2.74,2.74v9.94C266.01,93.46,264.78,94.68,263.26,94.68z"/>
<path class="st0" d="M287.33,94.68h-9.94c-1.52,0-2.74-1.23-2.74-2.74V82c0-1.52,1.23-2.74,2.74-2.74h9.94
	c1.52,0,2.74,1.23,2.74,2.74v9.94C290.07,93.46,288.84,94.68,287.33,94.68z"/>
</svg>
