<?xml version="1.0" encoding="utf-8"?>
<!-- Generator: Adobe Illustrator 24.3.0, SVG Export Plug-In . SVG Version: 6.00 Build 0)  -->
<svg version="1.1" id="Layer_1" xmlns="http://www.w3.org/2000/svg" xmlns:xlink="http://www.w3.org/1999/xlink" x="0px" y="0px"
	 viewBox="0 0 300 100" style="enable-background:new 0 0 300 100;" xml:space="preserve">
<style type="text/css">
	.st0{fill:#FFFFFF;}
	.st1{font-family:'OCRAExtended';}
	.st2{font-size:51.9682px;}
	.st3{fill:#EF0000;}
</style>
<g>
	<rect x="8.9" y="4" class="st0" width="286.3" height="13.3"/>
	<path d="M14.4,15.3H3.3c-0.5,0-0.9-0.4-0.9-0.9V6.9c0-0.5,0.4-0.9,0.9-0.9h11.1c0.5,0,0.9,0.4,0.9,0.9v7.5
		C15.2,14.9,14.9,15.3,14.4,15.3z"/>
	<path d="M32,15.3H21c-0.5,0-0.9-0.4-0.9-0.9V6.9c0-0.5,0.4-0.9,0.9-0.9H32c0.5,0,0.9,0.4,0.9,0.9v7.5C32.9,14.9,32.5,15.3,32,15.3z
		"/>
	<path d="M49.7,15.3H38.6c-0.5,0-0.9-0.4-0.9-0.9V6.9c0-0.5,0.4-0.9,0.9-0.9h11.1c0.5,0,0.9,0.4,0.9,0.9v7.5
		C50.5,14.9,50.1,15.3,49.7,15.3z"/>
	<path d="M67.3,15.3H56.3c-0.5,0-0.9-0.4-0.9-0.9V6.9c0-0.5,0.4-0.9,0.9-0.9h11.1c0.5,0,0.9,0.4,0.9,0.9v7.5
		C68.2,14.9,67.8,15.3,67.3,15.3z"/>
	<path d="M85,15.3H73.9c-0.5,0-0.9-0.4-0.9-0.9V6.9c0-0.5,0.4-0.9,0.9-0.9H85c0.5,0,0.9,0.4,0.9,0.9v7.5
		C85.8,14.9,85.4,15.3,85,15.3z"/>
	<path d="M102.6,15.3H91.5c-0.5,0-0.9-0.4-0.9-0.9V6.9c0-0.5,0.4-0.9,0.9-0.9h11.1c0.5,0,0.9,0.4,0.9,0.9v7.5
		C103.5,14.9,103.1,15.3,102.6,15.3z"/>
	<path d="M120.2,15.3h-11.1c-0.5,0-0.9-0.4-0.9-0.9V6.9c0-0.5,0.4-0.9,0.9-0.9h11.1c0.5,0,0.9,0.4,0.9,0.9v7.5
		C121.1,14.9,120.7,15.3,120.2,15.3z"/>
	<path d="M137.9,15.3h-11.1c-0.5,0-0.9-0.4-0.9-0.9V6.9c0-0.5,0.4-0.9,0.9-0.9h11.1c0.5,0,0.9,0.4,0.9,0.9v7.5
		C138.7,14.9,138.4,15.3,137.9,15.3z"/>
	<path d="M155.5,15.3h-11.1c-0.5,0-0.9-0.4-0.9-0.9V6.9c0-0.5,0.4-0.9,0.9-0.9h11.1c0.5,0,0.9,0.4,0.9,0.9v7.5
		C156.4,14.9,156,15.3,155.5,15.3z"/>
	<path d="M173.2,15.3h-11.1c-0.5,0-0.9-0.4-0.9-0.9V6.9c0-0.5,0.4-0.9,0.9-0.9h11.1c0.5,0,0.9,0.4,0.9,0.9v7.5
		C174,14.9,173.6,15.3,173.2,15.3z"/>
	<path d="M190.8,15.3h-11.1c-0.5,0-0.9-0.4-0.9-0.9V6.9c0-0.5,0.4-0.9,0.9-0.9h11.1c0.5,0,0.9,0.4,0.9,0.9v7.5
		C191.7,14.9,191.3,15.3,190.8,15.3z"/>
	<path d="M208.5,15.3h-11.1c-0.5,0-0.9-0.4-0.9-0.9V6.9c0-0.5,0.4-0.9,0.9-0.9h11.1c0.5,0,0.9,0.4,0.9,0.9v7.5
		C209.3,14.9,208.9,15.3,208.5,15.3z"/>
	<path d="M226.1,15.3H215c-0.5,0-0.9-0.4-0.9-0.9V6.9c0-0.5,0.4-0.9,0.9-0.9h11.1c0.5,0,0.9,0.4,0.9,0.9v7.5
		C227,14.9,226.6,15.3,226.1,15.3z"/>
	<path d="M243.7,15.3h-11.1c-0.5,0-0.9-0.4-0.9-0.9V6.9c0-0.5,0.4-0.9,0.9-0.9h11.1c0.5,0,0.9,0.4,0.9,0.9v7.5
		C244.6,14.9,244.2,15.3,243.7,15.3z"/>
	<path d="M261.4,15.3h-11.1c-0.5,0-0.9-0.4-0.9-0.9V6.9c0-0.5,0.4-0.9,0.9-0.9h11.1c0.5,0,0.9,0.4,0.9,0.9v7.5
		C262.2,14.9,261.9,15.3,261.4,15.3z"/>
	<path d="M279,15.3H268c-0.5,0-0.9-0.4-0.9-0.9V6.9c0-0.5,0.4-0.9,0.9-0.9H279c0.5,0,0.9,0.4,0.9,0.9v7.5
		C279.9,14.9,279.5,15.3,279,15.3z"/>
	<path d="M296.7,15.3h-11.1c-0.5,0-0.9-0.4-0.9-0.9V6.9c0-0.5,0.4-0.9,0.9-0.9h11.1c0.5,0,0.9,0.4,0.9,0.9v7.5
		C297.5,14.9,297.1,15.3,296.7,15.3z"/>
</g>
<g>
	<rect x="8.9" y="77.6" class="st0" width="286.3" height="13.3"/>
	<path d="M14.4,88.8H3.3c-0.5,0-0.9-0.4-0.9-0.9v-7.5c0-0.5,0.4-0.9,0.9-0.9h11.1c0.5,0,0.9,0.4,0.9,0.9v7.5
		C15.2,88.4,14.9,88.8,14.4,88.8z"/>
	<path d="M32,88.8H21c-0.5,0-0.9-0.4-0.9-0.9v-7.5c0-0.5,0.4-0.9,0.9-0.9H32c0.5,0,0.9,0.4,0.9,0.9v7.5C32.9,88.4,32.5,88.8,32,88.8
		z"/>
	<path d="M49.7,88.8H38.6c-0.5,0-0.9-0.4-0.9-0.9v-7.5c0-0.5,0.4-0.9,0.9-0.9h11.1c0.5,0,0.9,0.4,0.9,0.9v7.5
		C50.5,88.4,50.1,88.8,49.7,88.8z"/>
	<path d="M67.3,88.8H56.3c-0.5,0-0.9-0.4-0.9-0.9v-7.5c0-0.5,0.4-0.9,0.9-0.9h11.1c0.5,0,0.9,0.4,0.9,0.9v7.5
		C68.2,88.4,67.8,88.8,67.3,88.8z"/>
	<path d="M85,88.8H73.9c-0.5,0-0.9-0.4-0.9-0.9v-7.5c0-0.5,0.4-0.9,0.9-0.9H85c0.5,0,0.9,0.4,0.9,0.9v7.5
		C85.8,88.4,85.4,88.8,85,88.8z"/>
	<path d="M102.6,88.8H91.5c-0.5,0-0.9-0.4-0.9-0.9v-7.5c0-0.5,0.4-0.9,0.9-0.9h11.1c0.5,0,0.9,0.4,0.9,0.9v7.5
		C103.5,88.4,103.1,88.8,102.6,88.8z"/>
	<path d="M120.2,88.8h-11.1c-0.5,0-0.9-0.4-0.9-0.9v-7.5c0-0.5,0.4-0.9,0.9-0.9h11.1c0.5,0,0.9,0.4,0.9,0.9v7.5
		C121.1,88.4,120.7,88.8,120.2,88.8z"/>
	<path d="M137.9,88.8h-11.1c-0.5,0-0.9-0.4-0.9-0.9v-7.5c0-0.5,0.4-0.9,0.9-0.9h11.1c0.5,0,0.9,0.4,0.9,0.9v7.5
		C138.7,88.4,138.4,88.8,137.9,88.8z"/>
	<path d="M155.5,88.8h-11.1c-0.5,0-0.9-0.4-0.9-0.9v-7.5c0-0.5,0.4-0.9,0.9-0.9h11.1c0.5,0,0.9,0.4,0.9,0.9v7.5
		C156.4,88.4,156,88.8,155.5,88.8z"/>
	<path d="M173.2,88.8h-11.1c-0.5,0-0.9-0.4-0.9-0.9v-7.5c0-0.5,0.4-0.9,0.9-0.9h11.1c0.5,0,0.9,0.4,0.9,0.9v7.5
		C174,88.4,173.6,88.8,173.2,88.8z"/>
	<path d="M190.8,88.8h-11.1c-0.5,0-0.9-0.4-0.9-0.9v-7.5c0-0.5,0.4-0.9,0.9-0.9h11.1c0.5,0,0.9,0.4,0.9,0.9v7.5
		C191.7,88.4,191.3,88.8,190.8,88.8z"/>
	<path d="M208.5,88.8h-11.1c-0.5,0-0.9-0.4-0.9-0.9v-7.5c0-0.5,0.4-0.9,0.9-0.9h11.1c0.5,0,0.9,0.4,0.9,0.9v7.5
		C209.3,88.4,208.9,88.8,208.5,88.8z"/>
	<path d="M226.1,88.8H215c-0.5,0-0.9-0.4-0.9-0.9v-7.5c0-0.5,0.4-0.9,0.9-0.9h11.1c0.5,0,0.9,0.4,0.9,0.9v7.5
		C227,88.4,226.6,88.8,226.1,88.8z"/>
	<path d="M243.7,88.8h-11.1c-0.5,0-0.9-0.4-0.9-0.9v-7.5c0-0.5,0.4-0.9,0.9-0.9h11.1c0.5,0,0.9,0.4,0.9,0.9v7.5
		C244.6,88.4,244.2,88.8,243.7,88.8z"/>
	<path d="M261.4,88.8h-11.1c-0.5,0-0.9-0.4-0.9-0.9v-7.5c0-0.5,0.4-0.9,0.9-0.9h11.1c0.5,0,0.9,0.4,0.9,0.9v7.5
		C262.2,88.4,261.9,88.8,261.4,88.8z"/>
	<path d="M279,88.8H268c-0.5,0-0.9-0.4-0.9-0.9v-7.5c0-0.5,0.4-0.9,0.9-0.9H279c0.5,0,0.9,0.4,0.9,0.9v7.5
		C279.9,88.4,279.5,88.8,279,88.8z"/>
	<path d="M296.7,88.8h-11.1c-0.5,0-0.9-0.4-0.9-0.9v-7.5c0-0.5,0.4-0.9,0.9-0.9h11.1c0.5,0,0.9,0.4,0.9,0.9v7.5
		C297.5,88.4,297.1,88.8,296.7,88.8z"/>
</g>
<text transform="matrix(1 0 0 1 24.444 64.9127)" class="st0 st1 st2">FILMSTER</text>
<circle class="st3" cx="283.2" cy="47.3" r="12"/>
</svg>
